<svg id="Layer_1" data-name="Layer 1" xmlns="http://www.w3.org/2000/svg" viewBox="0 0 500 500" width="500" height="500" class="illustration"><defs><style>.cls-1{fill:#ffd44d;}.cls-2{fill:#f9bb0d;}.cls-3{fill:#fff;}</style></defs><title>Language Learning</title><path class="cls-1" d="M250,63c104.11,0,188.52,84.4,188.52,188.51a187.68,187.68,0,0,1-37.75,113.18l14.12,66.69a7.16,7.16,0,0,1-9.52,8.18l-63-23.71A187.57,187.57,0,0,1,250,440c-104.11,0-188.52-84.4-188.52-188.52S145.89,63,250,63Z"></path><path class="cls-2" d="M117.71,256.17c0-101.56,80.32-184.35,180.9-188.35A189.1,189.1,0,0,0,250,61.48C145.89,61.48,61.48,145.88,61.48,250S145.89,438.52,250,438.52c2.55,0,5.09-.07,7.61-.17A188.59,188.59,0,0,1,117.71,256.17Z"></path><path class="cls-3" d="M237.88,179.2A15.43,15.43,0,0,1,233,167.72a15.82,15.82,0,0,1,4.84-11.6A16.45,16.45,0,0,1,250,151.3a17,17,0,0,1,12.12,4.56A15,15,0,0,1,267,167.21a16.17,16.17,0,0,1-4.84,11.87A16.48,16.48,0,0,1,250,183.89,16.71,16.71,0,0,1,237.88,179.2Zm-.4,31.29h25V348.7h-25Z"></path></svg>