<svg xmlns="http://www.w3.org/2000/svg" version="1.1" xmlns:xlink="http://www.w3.org/1999/xlink" xmlns:svgjs="http://svgjs.dev/svgjs" width="1000" height="1000" viewBox="0 0 1000 1000"><rect width="1000" height="1000" fill="#ffffff"></rect><g transform="matrix(0.7,0,0,0.7,150.47569280359073,174.0641342701776)"><svg viewBox="0 0 265 247" data-background-color="#ffffff" preserveAspectRatio="xMidYMid meet" height="932" width="1000" xmlns="http://www.w3.org/2000/svg" xmlns:xlink="http://www.w3.org/1999/xlink"><g id="tight-bounds" transform="matrix(1,0,0,1,-0.18008364839613478,-0.10000178530637527)"><svg viewBox="0 0 265.3601673526126 247.2" height="247.2" width="265.3601673526126"><g><svg viewBox="0 0 395.52 368.4522246704762" height="247.2" width="265.3601673526126"><g transform="matrix(1,0,0,1,0,227.71825641650793)"><svg viewBox="0 0 395.52 140.73396825396824" height="140.73396825396824" width="395.52"><g><svg viewBox="0 0 395.52 140.73396825396824" height="140.73396825396824" width="395.52"><g><svg viewBox="0 0 395.52 140.73396825396824" height="140.73396825396824" width="395.52"><g transform="matrix(1,0,0,1,0,0)"><svg width="395.52" viewBox="1.100000023841858 -36 113.34000396728516 40.349998474121094" height="140.73396825396824" data-palette-color="#398378"><path d="M10.95 4.35L10.95 4.35Q7.4 4.35 5.23 2.58 3.05 0.8 2.08-2 1.1-4.8 1.1-7.85L1.1-7.85Q1.1-11.8 2.3-15.8 3.5-19.8 5.58-23.43 7.65-27.05 10.3-29.88 12.95-32.7 15.88-34.33 18.8-35.95 21.65-35.95L21.65-35.95Q23.7-35.95 24.98-34.98 26.25-34 26.25-31.65L26.25-31.65Q26.25-30.2 25.75-28.38 25.25-26.55 24.4-24.88 23.55-23.2 22.53-22.1 21.5-21 20.45-21L20.45-21Q20.05-21 19.63-21.25 19.2-21.5 18.9-22.15L18.9-22.15Q19.65-23 20.58-24.28 21.5-25.55 22.35-26.98 23.2-28.4 23.73-29.78 24.25-31.15 24.25-32.2L24.25-32.2Q24.25-33.2 23.68-33.83 23.1-34.45 21.8-34.45L21.8-34.45Q19.65-34.45 17.32-32.7 15-30.95 12.83-28.03 10.65-25.1 8.9-21.5 7.15-17.9 6.13-14.15 5.1-10.4 5.1-7L5.1-7Q5.1-4.55 5.8-2.33 6.5-0.1 8.08 1.28 9.65 2.65 12.15 2.65L12.15 2.65Q14.8 2.65 17.43 1.15 20.05-0.35 22.25-2.8 24.45-5.25 25.75-8.1L25.75-8.1 26.45-7.6Q24.8-4.35 22.45-1.63 20.1 1.1 17.2 2.73 14.3 4.35 10.95 4.35ZM27.05 1.9L27.05 1.9Q26.1 1.9 25.55 0.3 25-1.3 25-3.3L25-3.3Q25-5.7 25.8-9 26.6-12.3 27.9-15.95 29.2-19.6 30.82-23.1 32.45-26.6 34.15-29.45 35.85-32.3 37.35-34 38.85-35.7 39.95-35.7L39.95-35.7Q40.85-35.7 41.22-34.63 41.6-33.55 41.6-32.55L41.6-32.55Q41.6-31.15 40.97-29.15 40.35-27.15 39.25-24.88 38.15-22.6 36.7-20.4 35.25-18.2 33.55-16.38 31.85-14.55 30.1-13.5L30.1-13.5Q29.5-12.05 29.07-10.25 28.65-8.45 28.45-6.73 28.25-5 28.25-3.65L28.25-3.65Q28.25-3.1 28.27-2.7 28.3-2.3 28.35-1.95L28.35-1.95Q29.05-4 29.87-5.93 30.7-7.85 31.65-9.47 32.6-11.1 33.67-12.33 34.75-13.55 35.95-14.23 37.15-14.9 38.5-14.9L38.5-14.9Q39.9-14.9 40.72-14.23 41.55-13.55 41.92-12.53 42.3-11.5 42.3-10.4L42.3-10.4Q42.3-8.85 41.77-7.4 41.25-5.95 40.7-4.6 40.15-3.25 40.15-2L40.15-2Q40.15-1 40.57-0.55 41-0.1 41.65-0.1L41.65-0.1Q42.8-0.1 44.22-1.2 45.65-2.3 47.05-4.13 48.45-5.95 49.45-8.1L49.45-8.1 50.1-7.5Q49.05-5.05 47.55-3.08 46.05-1.1 44.25 0.05 42.45 1.2 40.5 1.2L40.5 1.2Q38.8 1.2 37.92 0.3 37.05-0.6 37.05-1.95L37.05-1.95Q37.05-3 37.45-4.3 37.85-5.6 38.22-6.95 38.6-8.3 38.6-9.5L38.6-9.5Q38.6-10.8 38.05-11.35 37.5-11.9 36.7-11.9L36.7-11.9Q35.45-11.9 34.45-10.9 33.45-9.9 32.62-8.33 31.8-6.75 31.07-5 30.35-3.25 29.7-1.68 29.05-0.1 28.4 0.9 27.75 1.9 27.05 1.9ZM30.75-15.45L30.75-15.45Q32.15-16.55 33.47-18.25 34.8-19.95 35.95-21.88 37.1-23.8 38-25.65 38.9-27.5 39.4-29 39.9-30.5 39.9-31.25L39.9-31.25Q39.9-31.5 39.85-31.58 39.8-31.65 39.7-31.65L39.7-31.65Q39.35-31.65 38.27-30.28 37.2-28.9 35.8-26.6 34.4-24.3 33.05-21.4 31.7-18.5 30.75-15.45ZM52.1 1.3L52.1 1.3Q50.15 1.3 49.2 0.08 48.25-1.15 48.25-2.9L48.25-2.9Q48.25-4.05 48.67-5.8 49.1-7.55 49.8-9.47 50.5-11.4 51.42-13.1 52.35-14.8 53.4-15.88 54.45-16.95 55.45-16.95L55.45-16.95Q55.9-16.95 56.22-16.68 56.55-16.4 56.55-15.85L56.55-15.85Q56.55-15.25 55.77-13.9 55-12.55 53.95-10.8 52.9-9.05 52.12-7.13 51.35-5.2 51.35-3.45L51.35-3.45Q51.35-1.65 51.95-1.05 52.55-0.45 53.8-0.45L53.8-0.45Q55.5-0.45 57.42-2.15 59.35-3.85 61.5-8.1L61.5-8.1 61.95-7.6Q60.5-3.3 57.77-1 55.05 1.3 52.1 1.3ZM58.1-21.6L58.1-21.6Q57.3-21.6 56.67-22 56.05-22.4 56.05-23.25L56.05-23.25Q56.05-24.3 57.27-25.08 58.5-25.85 59.7-25.85L59.7-25.85Q60.45-25.85 60.9-25.5 61.35-25.15 61.35-24.3L61.35-24.3Q61.35-23.35 60.32-22.48 59.3-21.6 58.1-21.6ZM64.69 1.5L64.69 1.5Q62.54 1.5 61.62 0.03 60.69-1.45 60.69-3.65L60.69-3.65Q60.69-6.05 61.59-9.35 62.49-12.65 63.97-16.3 65.44-19.95 67.19-23.43 68.94-26.9 70.69-29.75 72.44-32.6 73.92-34.3 75.39-36 76.24-36L76.24-36Q76.79-36 77.14-35.38 77.49-34.75 77.69-33.88 77.89-33 77.89-32.3L77.89-32.3Q77.89-30.95 77.22-28.78 76.54-26.6 75.32-23.93 74.09-21.25 72.42-18.53 70.74-15.8 68.77-13.3 66.79-10.8 64.59-9L64.59-9Q64.29-7.65 64.12-6.38 63.94-5.1 63.94-3.95L63.94-3.95Q63.94-2 64.49-1.05 65.04-0.1 66.14-0.1L66.14-0.1Q67.49-0.1 68.82-1.3 70.14-2.5 71.32-4.33 72.49-6.15 73.34-8.1L73.34-8.1 74.09-7.7Q72.09-3.45 69.74-0.98 67.39 1.5 64.69 1.5ZM65.04-10.7L65.04-10.7Q66.79-12.45 68.44-14.73 70.09-17 71.52-19.45 72.94-21.9 74.04-24.2 75.14-26.5 75.74-28.33 76.34-30.15 76.34-31.15L76.34-31.15Q76.34-31.65 76.22-31.8 76.09-31.95 75.99-31.95L75.99-31.95Q75.59-31.95 74.62-30.68 73.64-29.4 72.34-27.25 71.04-25.1 69.69-22.35 68.34-19.6 67.12-16.6 65.89-13.6 65.04-10.7ZM76.49 1.5L76.49 1.5Q74.34 1.5 73.42 0.03 72.49-1.45 72.49-3.65L72.49-3.65Q72.49-6.05 73.39-9.35 74.29-12.65 75.77-16.3 77.24-19.95 78.99-23.43 80.74-26.9 82.49-29.75 84.24-32.6 85.72-34.3 87.19-36 88.04-36L88.04-36Q88.59-36 88.94-35.38 89.29-34.75 89.49-33.88 89.69-33 89.69-32.3L89.69-32.3Q89.69-30.95 89.02-28.78 88.34-26.6 87.12-23.93 85.89-21.25 84.22-18.53 82.54-15.8 80.56-13.3 78.59-10.8 76.39-9L76.39-9Q76.09-7.65 75.92-6.38 75.74-5.1 75.74-3.95L75.74-3.95Q75.74-2 76.29-1.05 76.84-0.1 77.94-0.1L77.94-0.1Q79.29-0.1 80.62-1.3 81.94-2.5 83.12-4.33 84.29-6.15 85.14-8.1L85.14-8.1 85.89-7.7Q83.89-3.45 81.54-0.98 79.19 1.5 76.49 1.5ZM76.84-10.7L76.84-10.7Q78.59-12.45 80.24-14.73 81.89-17 83.31-19.45 84.74-21.9 85.84-24.2 86.94-26.5 87.54-28.33 88.14-30.15 88.14-31.15L88.14-31.15Q88.14-31.65 88.02-31.8 87.89-31.95 87.79-31.95L87.79-31.95Q87.39-31.95 86.42-30.68 85.44-29.4 84.14-27.25 82.84-25.1 81.49-22.35 80.14-19.6 78.92-16.6 77.69-13.6 76.84-10.7ZM87.74 1.3L87.74 1.3Q85.79 1.3 84.84 0.08 83.89-1.15 83.89-2.9L83.89-2.9Q83.89-4.05 84.31-5.8 84.74-7.55 85.44-9.47 86.14-11.4 87.06-13.1 87.99-14.8 89.04-15.88 90.09-16.95 91.09-16.95L91.09-16.95Q91.54-16.95 91.86-16.68 92.19-16.4 92.19-15.85L92.19-15.85Q92.19-15.25 91.41-13.9 90.64-12.55 89.59-10.8 88.54-9.05 87.76-7.13 86.99-5.2 86.99-3.45L86.99-3.45Q86.99-1.65 87.59-1.05 88.19-0.45 89.44-0.45L89.44-0.45Q91.14-0.45 93.06-2.15 94.99-3.85 97.14-8.1L97.14-8.1 97.59-7.6Q96.14-3.3 93.41-1 90.69 1.3 87.74 1.3ZM93.74-21.6L93.74-21.6Q92.94-21.6 92.31-22 91.69-22.4 91.69-23.25L91.69-23.25Q91.69-24.3 92.91-25.08 94.14-25.85 95.34-25.85L95.34-25.85Q96.09-25.85 96.54-25.5 96.99-25.15 96.99-24.3L96.99-24.3Q96.99-23.35 95.96-22.48 94.94-21.6 93.74-21.6ZM101.59 2.2L101.59 2.2Q98.53 2.2 97.01 0.53 95.48-1.15 95.48-3.6L95.48-3.6Q95.48-5.85 96.61-8.35 97.73-10.85 99.61-13.05 101.48-15.25 103.73-16.63 105.98-18 108.19-18L108.19-18Q109.34-18 110.31-17.4 111.28-16.8 111.28-14.95L111.28-14.95Q111.28-13.05 110.16-11.38 109.03-9.7 107.21-8.4 105.39-7.1 103.21-6.28 101.03-5.45 98.89-5.25L98.89-5.25Q98.78-4.75 98.73-4.3 98.69-3.85 98.69-3.45L98.69-3.45Q98.69-2.7 98.86-1.95 99.03-1.2 99.48-0.58 99.94 0.05 100.71 0.4 101.48 0.75 102.64 0.75L102.64 0.75Q104.78 0.75 106.89-0.48 108.98-1.7 110.78-3.7 112.59-5.7 113.84-8.1L113.84-8.1 114.44-7.65Q113.09-4.65 111.01-2.45 108.94-0.25 106.51 0.98 104.09 2.2 101.59 2.2ZM99.14-6.2L99.14-6.2Q100.48-6.65 102.19-7.53 103.89-8.4 105.46-9.6 107.03-10.8 108.06-12.25 109.09-13.7 109.09-15.3L109.09-15.3Q109.09-15.85 108.89-16.15 108.69-16.45 108.03-16.45L108.03-16.45Q106.84-16.45 105.48-15.53 104.14-14.6 102.89-13.1 101.64-11.6 100.64-9.8 99.64-8 99.14-6.2Z" opacity="1" transform="matrix(1,0,0,1,0,0)" fill="#000000" class="undefined-text-0" data-fill-palette-color="primary" id="text-0"></path></svg></g></svg></g></svg></g></svg></g><g transform="matrix(1,0,0,1,92.81208206457441,0)"><svg viewBox="0 0 209.89583587085116 194.49434412698412" height="194.49434412698412" width="209.89583587085116"><g><svg xmlns="http://www.w3.org/2000/svg" xmlns:xlink="http://www.w3.org/1999/xlink" version="1.1" x="8" y="0" viewBox="1.5945961475372314 1.5607693195343018 31.802207946777344 31.900373458862305" enable-background="new 0 0 35 35" xml:space="preserve" height="194.49434412698412" width="193.89583587085116" class="icon-icon-0" data-fill-palette-color="accent" id="icon-0"><g fill="#31c48d" data-fill-palette-color="accent"><path d="M31.3 29.4c-11.2 2.6-20.1-5.6-20.8-14.1l-8.6 1c2.9 15.6 19.6 21 30 14.4C32.7 30.3 32.2 29.2 31.3 29.4z" fill="#000000" data-fill-palette-color="accent"></path><path d="M32.7 21.3C25 23.1 18.9 17.7 18 11.9l-5.7 0.7-0.3 0c0.1 0.6 0.3 1.2 0.5 1.8 3.2 9.2 13.8 12.1 20.6 7.9C33.7 22 33.3 21.2 32.7 21.3z" fill="#000000" data-fill-palette-color="accent"></path><path d="M6.6 8.3c0-1.8 0.4-3.7 1.2-5.4 0.1-0.3 0-0.6-0.2-0.7C7.2 2 6.8 1.8 6.4 1.6c-0.3-0.1-0.6 0-0.7 0.3C4.7 4 4.4 6.3 4.5 8.5 2.8 9.1 1.5 11 1.6 14.1c0 0.1 0 0.2 0 0.3l8.8-1.1C10.2 10.2 8.5 8.6 6.6 8.3z" fill="#000000" data-fill-palette-color="accent"></path><path d="M17.9 9.9c-0.2-2.2-1.4-3.3-2.7-3.6 0-1.3 0.3-2.6 0.9-3.8 0.1-0.2 0-0.4-0.2-0.5-0.3-0.1-0.6-0.3-0.9-0.4-0.2-0.1-0.4 0-0.5 0.2-0.7 1.6-0.9 3.2-0.8 4.7-1.2 0.5-2.2 1.8-2.1 3.9 0 0.1 0 0.1 0 0.2L17.9 9.9z" fill="#000000" data-fill-palette-color="accent"></path></g></svg></g></svg></g><g><rect width="27.73216574088073" height="12.691534494598095" y="180.80280963238602" x="302.7079179354256" fill="#000000" data-fill-palette-color="accent"></rect><rect width="27.73216574088073" height="12.691534494598095" y="180.80280963238602" x="65.07991632369368" fill="#000000" data-fill-palette-color="accent"></rect><rect width="27.73216574088073" height="12.691534494598095" y="155.41974064318984" x="302.7079179354256" fill="#000000" data-fill-palette-color="accent"></rect><rect width="27.73216574088073" height="12.691534494598095" y="155.41974064318984" x="65.07991632369368" fill="#000000" data-fill-palette-color="accent"></rect></g></svg></g><defs></defs></svg><rect width="265.3601673526126" height="247.2" fill="none" stroke="none" visibility="hidden"></rect></g></svg></g></svg>